<svg width="16" height="16" viewBox="0 0 16 16" fill="none" xmlns="http://www.w3.org/2000/svg">
  <path
    d="M13.763 8.975V11.249L16.038 11.25V12.75H13.763V14.981H12.263V12.75L10.032 12.751V11.251H12.262V8.974H13.762L13.763 8.975ZM8.209 11.248V12.748H2.982C2.60927 12.748 2.2499 12.6092 1.97389 12.3588C1.69789 12.1083 1.52503 11.764 1.489 11.393L1.482 11.249L8.209 11.248ZM9.5 1C9.89782 1 10.2794 1.15804 10.5607 1.43934C10.842 1.72064 11 2.10218 11 2.5V8.5C11 8.89782 10.842 9.27936 10.5607 9.56066C10.2794 9.84196 9.89782 10 9.5 10H1.5C1.10218 10 0.720644 9.84196 0.43934 9.56066C0.158035 9.27936 0 8.89782 0 8.5L0 2.5C0 2.10218 0.158035 1.72064 0.43934 1.43934C0.720644 1.15804 1.10218 1 1.5 1H9.5ZM9.5 2.5H1.5V8.5H9.5V2.5ZM12.28 2.777C12.6778 2.777 13.0594 2.93504 13.3407 3.21634C13.622 3.49764 13.78 3.87918 13.78 4.277V7.497H12.28V2.777Z"
    fill="black" />
</svg>