<svg width="16" height="16" viewBox="0 0 16 16" fill="none" xmlns="http://www.w3.org/2000/svg">
  <path
    d="M7.75 1V3.5H6.25V2.5H3C2.62712 2.50002 2.26761 2.63892 1.99158 2.88962C1.71555 3.14032 1.5428 3.48484 1.507 3.856L1.5 4V12C1.50002 12.3729 1.63892 12.7324 1.88962 13.0084C2.14032 13.2844 2.48484 13.4572 2.856 13.493L3 13.5H6.25V12.505H7.75V15.005H6.25V15H3C2.20435 15 1.44129 14.6839 0.87868 14.1213C0.31607 13.5587 0 12.7956 0 12L0 4C0 3.20435 0.31607 2.44129 0.87868 1.87868C1.44129 1.31607 2.20435 1 3 1H7.75ZM7.75 8.982V10.982H6.25V8.982H7.75ZM13.763 4.975V7.25L16.038 7.251V8.751H13.763V10.982H12.263V8.75L10.032 8.751V7.251H12.262V4.974H13.762L13.763 4.975ZM7.75 5.023V7.023H6.25V5.023H7.75Z"
    fill="black" />
</svg>