<svg width="16" height="16" viewBox="0 0 16 16" fill="none" xmlns="http://www.w3.org/2000/svg">
  <path fill-rule="evenodd" clip-rule="evenodd"
    d="M8.75 1H7.25V2.32019C5.39941 2.67123 4 4.29721 4 6.25C4 8.24326 3.35132 8.77701 2.79272 9.23657C2.37061 9.58398 2 9.88901 2 10.75C2 11.5784 2.67163 12.25 3.5 12.25H5.25C5.25 13.7688 6.4812 15 8 15C9.5188 15 10.75 13.7688 10.75 12.25H12.5C13.3284 12.25 14 11.5784 14 10.75C14 9.88901 13.6294 9.58398 13.2073 9.23657C12.6487 8.77701 12 8.24326 12 6.25C12 4.29721 10.6006 2.67123 8.75 2.32019V1ZM8 3.75C9.38061 3.75 10.5 4.86929 10.5 6.25C10.5 7.2612 10.6436 8.07419 10.9377 8.74835C11.2434 9.44882 11.6626 9.88544 12.0122 10.1914C12.0933 10.2622 12.1709 10.3264 12.2332 10.3776L12.2532 10.3941L12.3335 10.4604L12.3901 10.5083C12.4463 10.5564 12.4751 10.5847 12.4893 10.5998L12.4924 10.6187C12.4961 10.6448 12.5 10.6873 12.5 10.75H3.5C3.5 10.6873 3.50391 10.6448 3.50757 10.6187L3.51074 10.5998L3.53076 10.5795C3.54761 10.5631 3.57275 10.54 3.60986 10.5083C3.64917 10.4745 3.69019 10.4407 3.74683 10.3942L3.76685 10.3776C3.8291 10.3264 3.90674 10.2622 3.98779 10.1914C4.3374 9.88544 4.75659 9.44882 5.06226 8.74835C5.35645 8.07419 5.5 7.2612 5.5 6.25C5.5 4.86929 6.61938 3.75 8 3.75ZM6.75 12.25C6.75 12.9404 7.30957 13.5 8 13.5C8.69043 13.5 9.25 12.9404 9.25 12.25H6.75Z"
    fill="black" />
</svg>