<svg width="16" height="16" viewBox="0 0 16 16" fill="none" xmlns="http://www.w3.org/2000/svg">
  <path fill-rule="evenodd" clip-rule="evenodd"
    d="M11.8449 3.29221L7.99981 1.07227L4.15475 3.29221L4.15382 7.03127L1.19482 8.74002V13.1799L5.03988 15.3999L7.99982 13.6903L10.9597 15.3999L14.8048 13.1799V8.74002L11.8448 7.03127L11.8449 3.29221ZM2.69481 9.60604L5.03981 8.25204L7.11382 9.44927V12.4683L5.03981 13.667L2.69481 12.313V9.60604ZM10.9588 8.25204L8.88482 9.44827V12.4693L10.9588 13.667L13.3038 12.313V9.60604L10.9588 8.25204ZM5.65381 4.15804L7.99981 2.80404L10.3448 4.15804V6.86604L7.99981 8.21904L5.65381 6.86604V4.15804Z"
    fill="black" />
</svg>