<svg width="16" height="16" viewBox="0 0 16 16" fill="none" xmlns="http://www.w3.org/2000/svg">
  <path fill-rule="evenodd" clip-rule="evenodd"
    d="M5.92694 7.141L9.10894 10.323L6.43194 13C6.08063 13.3514 5.62293 13.5766 5.1302 13.6407C4.63747 13.7047 4.13739 13.6039 3.70794 13.354L1.49994 15.56L0.439941 14.5L2.73494 12.203C2.58232 11.798 2.54973 11.3577 2.64108 10.9346C2.73242 10.5116 2.94382 10.1239 3.24994 9.818L5.92694 7.141ZM14.4999 0.440002L15.5599 1.5L13.6039 3.458C13.8539 3.88746 13.9546 4.38753 13.8906 4.88026C13.8266 5.37299 13.6013 5.83069 13.2499 6.182L10.5729 8.859L7.39094 5.677L10.0679 3C10.3739 2.69388 10.7616 2.48248 11.1846 2.39114C11.6076 2.2998 12.048 2.33239 12.4529 2.485L14.4999 0.440002Z"
    fill="black" />
</svg>