<svg width="16" height="16" viewBox="0 0 16 16" fill="none" xmlns="http://www.w3.org/2000/svg">
  <path
    d="M13.731 10V12.274H16.006V13.774H13.731V16.006H12.231V13.774H10V12.274H12.231V10H13.731ZM11 4.948H5V3.5H3.5V13.5H8.5V15H3.5C3.10218 15 2.72064 14.842 2.43934 14.5607C2.15804 14.2794 2 13.8978 2 13.5V3.5C2 3.10218 2.15804 2.72065 2.43934 2.43934C2.72064 2.15804 3.10218 2 3.5 2H5.17C5.3766 1.41447 5.75974 0.907435 6.2666 0.548791C6.77346 0.190147 7.37909 -0.00244904 8 -0.00244904C8.62091 -0.00244904 9.22654 0.190147 9.7334 0.548791C10.2403 0.907435 10.6234 1.41447 10.83 2H12.5C12.8978 2 13.2794 2.15804 13.5607 2.43934C13.842 2.72065 14 3.10218 14 3.5V7.209H12.5V3.5H11V4.948ZM8 1.5C7.62712 1.50002 7.26761 1.63892 6.99158 1.88962C6.71555 2.14032 6.5428 2.48484 6.507 2.856L6.5 3V3.447H9.5V3C9.49998 2.62712 9.36108 2.26761 9.11038 1.99158C8.85968 1.71555 8.51516 1.5428 8.144 1.507L8 1.5Z"
    fill="black" />
</svg>