<svg width="16" height="16" viewBox="0 0 16 16" fill="none" xmlns="http://www.w3.org/2000/svg">
  <path
    d="M9.76182 12.68L10.3888 15.637C9.91067 15.7863 9.41949 15.8901 8.92182 15.947L8.29282 12.992C8.7954 12.9632 9.2907 12.8574 9.76182 12.68ZM5.92682 7.142L9.10882 10.324L6.43182 13C6.08051 13.3514 5.62281 13.5766 5.13008 13.6407C4.63735 13.7047 4.13728 13.6039 3.70782 13.354L1.49982 15.56L0.439824 14.5L2.73482 12.203C2.58221 11.798 2.54962 11.3576 2.64096 10.9346C2.73231 10.5116 2.94371 10.1239 3.24982 9.818L5.92682 7.141V7.142ZM12.0258 10.967L14.1618 13.104C13.8418 13.489 13.4868 13.844 13.1018 14.164L10.9658 12.027C11.3701 11.7286 11.7274 11.3713 12.0258 10.967ZM5.92582 9.263L4.31082 10.88C4.18259 11.0082 4.10515 11.1785 4.09283 11.3594C4.08051 11.5403 4.13415 11.7196 4.24382 11.864L4.31082 11.94C4.43903 12.0682 4.60935 12.1457 4.79026 12.158C4.97117 12.1703 5.15042 12.1167 5.29482 12.007L5.37082 11.94L6.98682 10.323L5.92582 9.263ZM12.9858 8.383L15.9298 9.063C15.8638 9.566 15.7498 10.054 15.5938 10.523L12.6488 9.844C12.8308 9.386 12.9468 8.895 12.9858 8.383ZM14.4998 0.439001L15.5598 1.5L13.6038 3.458C13.8537 3.88745 13.9545 4.38753 13.8905 4.88026C13.8265 5.37299 13.6012 5.83069 13.2498 6.182L10.5728 8.859L7.39082 5.677L10.0678 3C10.3737 2.69388 10.7614 2.48248 11.1845 2.39114C11.6075 2.29979 12.0479 2.33238 12.4528 2.485L14.4998 0.439001ZM0.405824 5.477L3.35082 6.156C3.16882 6.614 3.05282 7.106 3.01382 7.619L0.0698242 6.94C0.135824 6.436 0.249824 5.946 0.405824 5.477ZM11.2058 3.994L11.1288 4.061L9.51282 5.676L10.5728 6.736L12.1888 5.121C12.3171 4.9928 12.3945 4.82247 12.4068 4.64156C12.4191 4.46065 12.3655 4.28141 12.2558 4.137L12.1888 4.061C12.0606 3.93277 11.8903 3.85533 11.7094 3.84301C11.5285 3.83069 11.3492 3.88433 11.2048 3.994H11.2058ZM2.89682 1.838L5.03282 3.974C4.62844 4.2727 4.27114 4.63034 3.97282 5.035L1.83582 2.9C2.15582 2.514 2.51082 2.159 2.89582 1.84L2.89682 1.838ZM7.07682 0.0530014L7.70482 3.009C7.20298 3.03766 6.70836 3.14218 6.23782 3.319L5.60782 0.363001C6.08663 0.2136 6.57848 0.109805 7.07682 0.0530014Z"
    fill="black" />
</svg>