<svg width="16" height="16" viewBox="0 0 16 16" fill="none" xmlns="http://www.w3.org/2000/svg">
  <path fill-rule="evenodd" clip-rule="evenodd"
    d="M11 12.49C11.3978 12.49 11.7794 12.648 12.0607 12.9293C12.342 13.2106 12.5 13.5922 12.5 13.99C12.5 14.3878 12.342 14.7694 12.0607 15.0507C11.7794 15.332 11.3978 15.49 11 15.49C10.6022 15.49 10.2206 15.332 9.93934 15.0507C9.65804 14.7694 9.5 14.3878 9.5 13.99C9.5 13.5922 9.65804 13.2106 9.93934 12.9293C10.2206 12.648 10.6022 12.49 11 12.49ZM5 12.49C5.39782 12.49 5.77936 12.648 6.06066 12.9293C6.34196 13.2106 6.5 13.5922 6.5 13.99C6.5 14.3878 6.34196 14.7694 6.06066 15.0507C5.77936 15.332 5.39782 15.49 5 15.49C4.60218 15.49 4.22064 15.332 3.93934 15.0507C3.65804 14.7694 3.5 14.3878 3.5 13.99C3.5 13.5922 3.65804 13.2106 3.93934 12.9293C4.22064 12.648 4.60218 12.49 5 12.49ZM11 6.5C11.3978 6.5 11.7794 6.65804 12.0607 6.93934C12.342 7.22065 12.5 7.60218 12.5 8C12.5 8.39783 12.342 8.77936 12.0607 9.06066C11.7794 9.34197 11.3978 9.5 11 9.5C10.6022 9.5 10.2206 9.34197 9.93934 9.06066C9.65804 8.77936 9.5 8.39783 9.5 8C9.5 7.60218 9.65804 7.22065 9.93934 6.93934C10.2206 6.65804 10.6022 6.5 11 6.5ZM5 6.5C5.39782 6.5 5.77936 6.65804 6.06066 6.93934C6.34196 7.22065 6.5 7.60218 6.5 8C6.5 8.39783 6.34196 8.77936 6.06066 9.06066C5.77936 9.34197 5.39782 9.5 5 9.5C4.60218 9.5 4.22064 9.34197 3.93934 9.06066C3.65804 8.77936 3.5 8.39783 3.5 8C3.5 7.60218 3.65804 7.22065 3.93934 6.93934C4.22064 6.65804 4.60218 6.5 5 6.5ZM11 0.510002C11.3978 0.510002 11.7794 0.668037 12.0607 0.949342C12.342 1.23065 12.5 1.61218 12.5 2.01C12.5 2.40783 12.342 2.78936 12.0607 3.07066C11.7794 3.35197 11.3978 3.51 11 3.51C10.6022 3.51 10.2206 3.35197 9.93934 3.07066C9.65804 2.78936 9.5 2.40783 9.5 2.01C9.5 1.61218 9.65804 1.23065 9.93934 0.949342C10.2206 0.668037 10.6022 0.510002 11 0.510002ZM5 0.510002C5.39782 0.510002 5.77936 0.668037 6.06066 0.949342C6.34196 1.23065 6.5 1.61218 6.5 2.01C6.5 2.40783 6.34196 2.78936 6.06066 3.07066C5.77936 3.35197 5.39782 3.51 5 3.51C4.60218 3.51 4.22064 3.35197 3.93934 3.07066C3.65804 2.78936 3.5 2.40783 3.5 2.01C3.5 1.61218 3.65804 1.23065 3.93934 0.949342C4.22064 0.668037 4.60218 0.510002 5 0.510002Z"
    fill="black" />
</svg>