<svg width="16" height="16" viewBox="0 0 16 16" fill="none" xmlns="http://www.w3.org/2000/svg">
  <path
    d="M14 13.25V14.75H2V13.25H14ZM11.907 1.676L12.487 2.256C12.6728 2.44173 12.8202 2.66224 12.9208 2.90495C13.0213 3.14765 13.0731 3.40779 13.0731 3.6705C13.0731 3.93321 13.0213 4.19335 12.9208 4.43605C12.8202 4.67876 12.6728 4.89927 12.487 5.085L7.354 10.218C7.316 10.256 7.275 10.291 7.232 10.322L7.242 10.33C6.76711 10.8048 6.174 11.1442 5.524 11.313L2.004 12.227L2.867 8.644C3.005 8.074 3.277 7.545 3.662 7.104L3.832 6.921L3.842 6.931C3.872 6.888 3.907 6.847 3.945 6.809L9.078 1.676C9.26373 1.4902 9.48424 1.34281 9.72695 1.24225C9.96965 1.14169 10.2298 1.08993 10.4925 1.08993C10.7552 1.08993 11.0153 1.14169 11.2581 1.24225C11.5008 1.34281 11.7213 1.4902 11.907 1.676ZM8.598 4.276L5.036 7.84L4.443 8.66L5.505 9.723L6.319 9.132L9.886 5.564L8.598 4.276ZM10.208 2.679L10.138 2.736L9.659 3.216L10.947 4.504L11.427 4.024C11.5097 3.94114 11.5607 3.83191 11.5711 3.71533C11.5815 3.59874 11.5507 3.4822 11.484 3.386L11.427 3.317L10.846 2.737C10.7633 2.65417 10.6541 2.603 10.5375 2.5924C10.4209 2.5818 10.3043 2.61245 10.208 2.679Z"
    fill="black" />
</svg>