<svg width="16" height="16" viewBox="0 0 16 16" fill="none" xmlns="http://www.w3.org/2000/svg">
  <path fill-rule="evenodd" clip-rule="evenodd"
    d="M8 0C12.4183 0 16 3.58172 16 8C16 12.4183 12.4183 16 8 16C3.58172 16 0 12.4183 0 8C0 3.58172 3.58172 0 8 0ZM10.2821 4.63806L11.3427 5.69872L9.05007 7.99006L11.3427 10.2821L10.2821 11.3427L7.99007 9.05007L5.69873 11.3427L4.63807 10.2821L6.92907 7.99006L4.63807 5.69872L5.69873 4.63806L7.99007 6.92906L10.2821 4.63806ZM1.5 8C1.5 4.41014 4.41015 1.5 8 1.5C11.5899 1.5 14.5 4.41014 14.5 8C14.5 11.5899 11.5899 14.5 8 14.5C4.41015 14.5 1.5 11.5899 1.5 8Z"
    fill="black" />
</svg>