<svg width="16" height="16" viewBox="0 0 16 16" fill="none" xmlns="http://www.w3.org/2000/svg">
  <path
    d="M11.5469 0.119003L15.9589 4.531L14.8989 5.591L14.5329 5.226L12.3279 7.43L10.9429 10.028L12.0709 11.157L11.0109 12.217L7.99888 9.206L3.47588 13.73L1.57788 14.646L2.32188 12.764L6.93888 8.146L3.92888 5.136L4.98888 4.076L6.01688 5.103L8.83588 3.851L10.9959 1.69L10.4859 1.18L11.5459 0.119003H11.5469ZM11.9279 2.879L9.89688 4.912C9.79914 5.00941 9.68843 5.09286 9.56788 5.16L9.44488 5.222L7.15988 6.237L9.83788 8.915L11.0049 6.725C11.0513 6.6378 11.1062 6.5554 11.1689 6.479L11.2689 6.369L13.3439 4.293L11.9279 2.879Z"
    fill="black" />
</svg>