<svg width="16" height="16" viewBox="0 0 16 16" fill="none" xmlns="http://www.w3.org/2000/svg">
  <path
    d="M8.00011 0.496002L10.0531 2.359L12.8231 2.251L13.1991 4.998L15.3901 6.697L13.9121 9.042L14.4991 11.752L11.8591 12.599L10.5671 15.052L8.00011 14.003L5.43311 15.052L4.14111 12.599L1.50111 11.752L2.08811 9.042L0.610107 6.697L2.80011 4.998L3.17511 2.251L5.94511 2.359L8.00011 0.496002ZM8.00011 2.52L6.50011 3.881L4.47811 3.803L4.20411 5.808L2.60311 7.048L3.68311 8.761L3.25511 10.739L5.18311 11.358L6.12611 13.148L8.00011 12.383L9.87311 13.148L10.8171 11.358L12.7441 10.739L12.3161 8.761L13.3961 7.048L11.7961 5.808L11.5211 3.803L9.49911 3.881L8.00011 2.52ZM9.89911 5.355L11.1061 6.245L7.37911 11.305L4.71911 8.952L5.71311 7.829L7.14411 9.094L9.89911 5.355Z"
    fill="black" />
</svg>