<svg width="16" height="16" viewBox="0 0 16 16" fill="none" xmlns="http://www.w3.org/2000/svg">
  <path
    d="M1.70302 3.958L1.80902 3.86501L1.82002 3.856C1.90878 3.78473 2.00345 3.72117 2.10302 3.666L7.03202 0.938005C7.32833 0.774115 7.66141 0.688141 8.00002 0.688141C8.33864 0.688141 8.67171 0.774115 8.96802 0.938005L13.897 3.666L14.044 3.756L14.212 3.882L14.332 3.992L14.394 4.055L14.466 4.137L14.556 4.254L14.664 4.423L14.744 4.577L14.794 4.693L14.852 4.87C14.902 5.046 14.928 5.23 14.928 5.416V10.727C14.9281 11.0842 14.8325 11.4349 14.6512 11.7426C14.4699 12.0504 14.2095 12.3039 13.897 12.477L8.96802 15.204C8.67171 15.3679 8.33864 15.4539 8.00002 15.4539C7.66141 15.4539 7.32833 15.3679 7.03202 15.204L2.10302 12.477C1.79056 12.3039 1.53014 12.0504 1.34884 11.7426C1.16753 11.4349 1.07195 11.0842 1.07202 10.727V5.416C1.07203 5.29289 1.08342 5.17003 1.10602 5.049L1.14802 4.871C1.1657 4.8087 1.18639 4.7473 1.21002 4.687L1.27302 4.543L1.31502 4.46L1.39502 4.325L1.46502 4.225L1.52602 4.147L1.62602 4.034L1.70302 3.958ZM13.428 6.333L8.96802 8.802C8.67171 8.96589 8.33864 9.05187 8.00002 9.05187C7.66141 9.05187 7.32833 8.96589 7.03202 8.802L2.57202 6.334V10.727C2.57197 10.801 2.58836 10.8742 2.62001 10.9411C2.65166 11.008 2.69777 11.0671 2.75502 11.114L2.83002 11.164L7.75802 13.892C7.81698 13.9246 7.88192 13.9449 7.94894 13.9518C8.01596 13.9587 8.08367 13.952 8.14802 13.932L8.24202 13.892L13.17 11.164C13.2349 11.1281 13.291 11.0783 13.3342 11.0181C13.3774 10.958 13.4067 10.8889 13.42 10.816L13.428 10.727V6.333ZM7.85202 2.211L7.75802 2.251L3.02502 4.871L7.75802 7.49C7.81698 7.5226 7.88192 7.54295 7.94894 7.54982C8.01596 7.5567 8.08367 7.54996 8.14802 7.53L8.24202 7.49L12.974 4.87L8.24202 2.25C8.18306 2.21741 8.11812 2.19706 8.05111 2.19019C7.98409 2.18331 7.91637 2.19105 7.85202 2.211Z"
    fill="black" />
</svg>