<svg width="16" height="16" viewBox="0 0 16 16" fill="none" xmlns="http://www.w3.org/2000/svg">
  <path
    d="M12.9502 12.95L12.7702 13.123L12.6962 13.191C12.5929 13.2845 12.4869 13.3749 12.3782 13.462L12.1072 13.669L11.8982 13.815L11.6442 13.978L11.4192 14.11L11.1762 14.24L10.9662 14.343L10.6902 14.464L10.5572 14.518L10.1722 14.657L9.90118 14.739L9.63718 14.807L9.33918 14.872L9.06718 14.919L8.73017 14.962L8.42617 14.987L8.12017 15H8.00017L7.78617 14.997L7.50117 14.982L7.12017 14.945L6.78118 14.895L6.59718 14.859L6.27317 14.785L6.01517 14.715L5.76617 14.636L5.44317 14.518L5.24818 14.438L5.03417 14.343L4.75818 14.206L4.54518 14.09C4.35617 13.982 4.1723 13.8652 3.99418 13.74L3.79718 13.598L3.62218 13.462L3.44618 13.316L3.14918 13.046L2.98918 12.888L2.77618 12.659L2.70618 12.579C1.83663 11.5737 1.27129 10.3416 1.07626 9.02679C0.881224 7.71199 1.06457 6.36883 1.60484 5.15439C2.14512 3.93996 3.01999 2.90445 4.12715 2.16896C5.23432 1.43348 6.528 1.02842 7.85691 1.00115C9.18582 0.973889 10.495 1.32555 11.6314 2.01501C12.7678 2.70446 13.6844 3.70322 14.2741 4.89447C14.8637 6.08572 15.102 7.42023 14.961 8.74193C14.8201 10.0636 14.3058 11.3179 13.4782 12.358L13.2842 12.592C13.177 12.7152 13.0656 12.8346 12.9502 12.95ZM8.50017 10.502H7.50017C6.89048 10.5018 6.29133 10.661 5.76213 10.9638C5.23292 11.2665 4.79203 11.7023 4.48318 12.228C5.46977 13.0518 6.71485 13.5021 8.00017 13.5C9.28577 13.5019 10.5311 13.0517 11.5182 12.228C11.2255 11.7305 10.8144 11.313 10.3213 11.0129C9.82821 10.7128 9.26855 10.5394 8.69218 10.508L8.50017 10.502ZM8.00017 2.5C7.00151 2.49983 6.02165 2.77156 5.16571 3.28606C4.30978 3.80055 3.61008 4.53838 3.14168 5.42038C2.67329 6.30239 2.45388 7.29528 2.50699 8.29253C2.56011 9.28977 2.88374 10.2537 3.44318 11.081C3.99868 10.3086 4.76288 9.71055 5.64617 9.357C5.22682 8.82899 4.99907 8.17429 5.00018 7.5V7C5.00018 6.20435 5.31625 5.44129 5.87885 4.87868C6.44146 4.31607 7.20453 4 8.00017 4C8.79582 4 9.55889 4.31607 10.1215 4.87868C10.6841 5.44129 11.0002 6.20435 11.0002 7V7.5C11.0002 8.201 10.7602 8.847 10.3562 9.358C11.2442 9.713 12.0062 10.315 12.5582 11.08C13.1174 10.2527 13.4408 9.28872 13.4937 8.29154C13.5467 7.29436 13.3271 6.30158 12.8586 5.41971C12.3902 4.53783 11.6904 3.80014 10.8345 3.28577C9.97857 2.77141 8.99876 2.49977 8.00017 2.5ZM8.00017 5.5C7.62729 5.50002 7.26778 5.63892 6.99176 5.88962C6.71573 6.14032 6.54297 6.48484 6.50717 6.856L6.50017 7V7.5C6.50037 7.88522 6.64875 8.2556 6.91458 8.53439C7.18042 8.81318 7.54332 8.97902 7.92809 8.99753C8.31286 9.01604 8.69001 8.88581 8.98138 8.63383C9.27275 8.38184 9.456 8.02742 9.49318 7.644L9.50018 7.5V7C9.50018 6.60218 9.34214 6.22065 9.06084 5.93934C8.77953 5.65804 8.398 5.5 8.00017 5.5Z"
    fill="black" />
</svg>