<svg width="16" height="16" viewBox="0 0 16 16" fill="none" xmlns="http://www.w3.org/2000/svg">
  <path fill-rule="evenodd" clip-rule="evenodd"
    d="M6.19705 1.14999V6.08099H4.69705L4.69605 3.60299C3.76089 4.30591 3.07422 5.28871 2.73582 6.40857C2.39743 7.52844 2.42493 8.72704 2.81433 9.83021C3.20373 10.9334 3.93475 11.8836 4.90116 12.5429C5.86758 13.2022 7.01904 13.5362 8.18823 13.4963C9.35743 13.4564 10.4835 13.0447 11.4027 12.3211C12.3219 11.5975 12.9865 10.5996 13.2998 9.47249C13.6131 8.34534 13.5589 7.14766 13.1449 6.05346C12.731 4.95925 11.9789 4.02554 10.998 3.38799L11.748 2.08799C12.9941 2.8781 13.9587 4.04174 14.5039 5.41273C15.0492 6.78372 15.1473 8.29195 14.7843 9.72204C14.4213 11.1521 13.6157 12.4309 12.4825 13.3759C11.3493 14.3208 9.94656 14.8835 8.47451 14.9836C7.00247 15.0837 5.53643 14.7161 4.28575 13.9333C3.03507 13.1506 2.06371 11.9926 1.51039 10.6249C0.957073 9.25709 0.850087 7.74946 1.20471 6.31726C1.55934 4.88506 2.35744 3.60155 3.48505 2.64999H1.26805V1.14999H6.19705Z"
    fill="black" />
</svg>