<svg width="16" height="16" viewBox="0 0 16 16" fill="none" xmlns="http://www.w3.org/2000/svg">
  <path
    d="M9.81693 0.639008C11.2083 0.98251 12.4737 1.71384 13.4659 2.74801L12.7979 4.59701C13.0099 4.89401 13.1939 5.21201 13.3479 5.54701L15.2839 5.89301C15.4769 6.56201 15.5799 7.26901 15.5799 8.00001C15.5799 8.73101 15.4769 9.43801 15.2839 10.107L13.3479 10.453C13.1946 10.7861 13.0105 11.1042 12.7979 11.403L13.4659 13.253C12.4733 14.287 11.2076 15.018 9.81593 15.361L8.54793 13.857C8.18337 13.8907 7.81648 13.8907 7.45193 13.857L6.18393 15.361C4.79216 15.0177 3.52643 14.2863 2.53393 13.252L3.20193 11.403C2.98935 11.1042 2.80521 10.7861 2.65193 10.453L0.715927 10.107C0.518741 9.42207 0.419094 8.71276 0.419927 8.00001C0.419927 7.26901 0.522927 6.56201 0.715927 5.89301L2.65193 5.54701C2.80593 5.21201 2.98993 4.89401 3.20193 4.59701L2.53393 2.74701C3.52668 1.71341 4.79238 0.982774 6.18393 0.640008L7.45193 2.14401C7.81648 2.11032 8.18337 2.11032 8.54793 2.14401L9.81693 0.639008ZM10.3129 2.37601L9.18993 3.70901L8.40993 3.63701C8.27364 3.62405 8.13683 3.61737 7.99993 3.61701L7.79393 3.62301L7.58993 3.63701L6.80993 3.70901L5.68593 2.37601L5.46393 2.47201C5.11793 2.63101 4.78893 2.82201 4.47993 3.04201L4.28593 3.18601L4.87893 4.82601L4.42393 5.46601C4.31875 5.61424 4.2229 5.76887 4.13693 5.92901L4.01493 6.17301L3.68793 6.88601L1.97493 7.19101L1.95793 7.31101C1.94505 7.42505 1.93538 7.53942 1.92893 7.65401L1.91993 8.00001C1.91993 8.23201 1.93393 8.46201 1.95993 8.68901L1.97593 8.80801L3.68893 9.11401L4.01593 9.82701C4.09193 9.99201 4.17793 10.152 4.27393 10.307L4.42493 10.534L4.87993 11.174L4.28693 12.813L4.48093 12.958C4.79093 13.178 5.11893 13.369 5.46493 13.528L5.68693 13.623L6.80993 12.291L7.58993 12.363C7.72593 12.376 7.86293 12.383 8.00093 12.383L8.20693 12.377L8.41093 12.363L9.19093 12.291L10.3139 13.623L10.5379 13.528C10.8829 13.369 11.2119 13.178 11.5209 12.958L11.7139 12.813L11.1219 11.174L11.5769 10.534C11.6819 10.386 11.7779 10.231 11.8639 10.071L11.9859 9.82701L12.3129 9.11401L14.0249 8.80801L14.0429 8.68801C14.0559 8.57501 14.0649 8.46101 14.0719 8.34601L14.0799 8.00001C14.0799 7.76801 14.0659 7.53801 14.0399 7.31101L14.0229 7.19101L12.3109 6.88601L11.9839 6.17301C11.908 6.00779 11.8218 5.84748 11.7259 5.69301L11.5749 5.46601L11.1199 4.82601L11.7119 3.18601L11.5189 3.04201C11.2099 2.82201 10.8809 2.63101 10.5359 2.47201L10.3129 2.37601ZM7.99993 5.00001C8.79558 5.00001 9.55864 5.31608 10.1212 5.87869C10.6839 6.4413 10.9999 7.20436 10.9999 8.00001C10.9999 8.79566 10.6839 9.55872 10.1212 10.1213C9.55864 10.6839 8.79558 11 7.99993 11C7.20428 11 6.44122 10.6839 5.87861 10.1213C5.316 9.55872 4.99993 8.79566 4.99993 8.00001C4.99993 7.20436 5.316 6.4413 5.87861 5.87869C6.44122 5.31608 7.20428 5.00001 7.99993 5.00001ZM7.99993 6.50001C7.6021 6.50001 7.22057 6.65804 6.93927 6.93935C6.65796 7.22065 6.49993 7.60218 6.49993 8.00001C6.49993 8.39783 6.65796 8.77936 6.93927 9.06067C7.22057 9.34197 7.6021 9.50001 7.99993 9.50001C8.39775 9.50001 8.77928 9.34197 9.06059 9.06067C9.34189 8.77936 9.49993 8.39783 9.49993 8.00001C9.49993 7.60218 9.34189 7.22065 9.06059 6.93935C8.77928 6.65804 8.39775 6.50001 7.99993 6.50001Z"
    fill="black" />
</svg>