<svg width="16" height="16" viewBox="0 0 16 16" fill="none" xmlns="http://www.w3.org/2000/svg">
  <path fill-rule="evenodd" clip-rule="evenodd"
    d="M13.9471 6.08689V7.32689H9.59706V6.44689C9.73706 6.20689 9.9054 5.94856 10.1021 5.67189C10.2988 5.39523 10.5054 5.11689 10.7221 4.83689C10.9388 4.55689 11.1538 4.28523 11.3671 4.02189C11.5804 3.75856 11.7771 3.52023 11.9571 3.30689H9.71707V2.06689H13.8971V3.06689C13.7771 3.20023 13.6154 3.38023 13.4121 3.60689C13.2088 3.83356 12.9904 4.08356 12.7571 4.35689C12.5238 4.63023 12.2888 4.91689 12.0521 5.21689C11.8154 5.51689 11.6004 5.8069 11.4071 6.08689H13.9471ZM7.89504 12.6724V14.0864H2.07104V13.0364C2.27637 12.6631 2.53304 12.2571 2.84104 11.8184C3.14904 11.3798 3.46637 10.9388 3.79304 10.4954C4.11971 10.0521 4.44405 9.62978 4.76605 9.22845C5.08805 8.82711 5.37504 8.4771 5.62704 8.17844H2.25304V6.76444H7.81104V7.95444C7.62437 8.15044 7.37937 8.42578 7.07605 8.78045C6.77272 9.13511 6.44837 9.52944 6.10304 9.96344C5.75771 10.3974 5.41004 10.8501 5.06004 11.3214C4.71004 11.7928 4.39505 12.2431 4.11505 12.6724H7.89504Z"
    fill="black" />
</svg>