<svg width="16" height="16" viewBox="0 0 16 16" fill="none" xmlns="http://www.w3.org/2000/svg">
  <path
    d="M7.99995 13.5C8.79532 13.5008 9.58136 13.3287 10.3036 12.9956C11.0259 12.6625 11.6671 12.1765 12.1829 11.571L13.4999 12.331C12.8454 13.1636 12.0101 13.8365 11.0573 14.2989C10.1045 14.7612 9.05903 15.001 7.99995 15C6.94086 15.001 5.89541 14.7612 4.94259 14.2989C3.98978 13.8365 3.15452 13.1636 2.49995 12.331L3.81595 11.571C4.33186 12.1766 4.97326 12.6628 5.69572 12.9958C6.41817 13.3289 7.2044 13.5009 7.99995 13.5ZM6.99895 1.07101V2.59101C6.21661 2.73584 5.475 3.04863 4.82524 3.5078C4.17549 3.96696 3.63304 4.56159 3.23532 5.25067C2.83759 5.93975 2.59404 6.7069 2.52147 7.49921C2.4489 8.29151 2.54902 9.09014 2.81495 9.84001L1.49995 10.6C1.11442 9.63526 0.948404 8.5968 1.01395 7.55994C1.07949 6.52308 1.37495 5.51379 1.8789 4.60527C2.38285 3.69674 3.08266 2.91175 3.92759 2.3072C4.77251 1.70265 5.74138 1.29371 6.76395 1.11001L6.99895 1.07201V1.07101ZM14.9999 8.00001C14.9999 8.91801 14.8229 9.79501 14.5019 10.6L13.1849 9.83901C13.4509 9.08907 13.551 8.29037 13.4783 7.498C13.4057 6.70564 13.1621 5.93845 12.7642 5.24935C12.3664 4.56026 11.8238 3.96565 11.174 3.50653C10.5241 3.04742 9.78237 2.73472 8.99995 2.59001V1.07001C12.3919 1.55501 14.9999 4.47401 14.9999 8.00001Z"
    fill="black" />
</svg>