<svg width="16" height="16" viewBox="0 0 16 16" fill="none" xmlns="http://www.w3.org/2000/svg">
  <path fill-rule="evenodd" clip-rule="evenodd"
    d="M14.8458 0.471993L15.9058 1.53199L13.5798 3.85999C14.5696 5.20824 15.0439 6.86632 14.9169 8.53404C14.7899 10.2018 14.0699 11.7689 12.8874 12.9517C11.7048 14.1345 10.1379 14.8548 8.47017 14.9821C6.80247 15.1095 5.14429 14.6355 3.79584 13.646L1.52484 15.916L0.464844 14.856L14.8448 0.470993L14.8458 0.471993ZM12.5028 4.93599L9.24884 8.18899L11.5608 10.5L10.4998 11.56L8.18784 9.24999L4.86984 12.568C5.92802 13.2784 7.20005 13.5992 8.46856 13.4757C9.73706 13.3521 10.9233 12.7919 11.8245 11.8907C12.7257 10.9894 13.286 9.80321 13.4095 8.53471C13.5331 7.2662 13.2122 5.99416 12.5018 4.93599H12.5028ZM7.99984 0.999993C9.35284 0.999993 10.6158 1.38399 11.6868 2.04799L10.5888 3.14599C9.54826 2.58994 8.35644 2.38324 7.18938 2.55642C6.02232 2.7296 4.94188 3.27349 4.10761 4.10776C3.27334 4.94203 2.72945 6.02247 2.55627 7.18953C2.38309 8.35659 2.58979 9.54841 3.14584 10.589L2.04784 11.687C1.39083 10.6267 1.02908 9.41004 1.00004 8.16299C0.970992 6.91595 1.2757 5.6838 1.88263 4.59403C2.48957 3.50427 3.37667 2.59647 4.45217 1.96459C5.52766 1.33271 6.75246 0.99969 7.99984 0.999993ZM8.86684 3.35899L8.86584 4.86899L7.36584 6.36899V3.35899H8.86684Z"
    fill="black" />
</svg>