<svg width="16" height="16" viewBox="0 0 16 16" fill="none" xmlns="http://www.w3.org/2000/svg">
  <path
    d="M8.73415 0.289013C8.91812 0.384137 9.06802 0.534038 9.16315 0.718013L15.7941 13.541C15.8729 13.6934 15.9111 13.8635 15.9051 14.0349C15.8991 14.2064 15.8491 14.3734 15.7599 14.5199C15.6707 14.6665 15.5454 14.7876 15.3958 14.8717C15.2463 14.9557 15.0777 14.9999 14.9061 15H1.64315C1.47147 15 1.30268 14.9558 1.15303 14.8717C1.00337 14.7876 0.8779 14.6663 0.788687 14.5197C0.699474 14.373 0.649526 14.2058 0.643652 14.0342C0.637778 13.8626 0.676175 13.6924 0.755148 13.54L7.38615 0.719013C7.44637 0.602221 7.52903 0.498444 7.62939 0.413616C7.72975 0.328787 7.84584 0.26457 7.97103 0.224635C8.09622 0.1847 8.22805 0.169831 8.359 0.180877C8.48994 0.191924 8.61742 0.228669 8.73415 0.289013ZM8.27415 2.26501L2.46415 13.5H14.0841L8.27415 2.26501ZM8.77415 10.287C8.89117 10.287 9.00451 10.328 9.09441 10.4029C9.18431 10.4778 9.24508 10.5819 9.26615 10.697L9.27415 10.787V11.787C9.27419 11.904 9.23318 12.0174 9.15826 12.1073C9.08334 12.1972 8.97926 12.2579 8.86415 12.279L8.77415 12.287H7.77415C7.65729 12.2868 7.5442 12.2457 7.4545 12.1708C7.36481 12.0959 7.30418 11.992 7.28315 11.877L7.27415 11.787V10.787C7.27411 10.67 7.31512 10.5567 7.39004 10.4668C7.46495 10.3769 7.56903 10.3161 7.68415 10.295L7.77415 10.287H8.77415ZM9.27415 5.60701V8.98001H7.27415V5.60801L9.27415 5.60701Z"
    fill="black" />
</svg>