<svg width="16" height="16" viewBox="0 0 16 16" fill="none" xmlns="http://www.w3.org/2000/svg">
  <path d="M8 15C11.866 15 15 11.866 15 8C15 4.13401 11.866 1 8 1C4.13401 1 1 4.13401 1 8C1 11.866 4.13401 15 8 15Z"
    fill="#24598F" />
  <path opacity="0.5"
    d="M8 3.5C9.19347 3.5 10.3381 3.97411 11.182 4.81802C12.0259 5.66193 12.5 6.80653 12.5 8C12.5 9.19347 12.0259 10.3381 11.182 11.182C10.3381 12.0259 9.19347 12.5 8 12.5C6.80653 12.5 5.66193 12.0259 4.81802 11.182C3.97411 10.3381 3.5 9.19347 3.5 8C3.5 6.80653 3.97411 5.66193 4.81802 4.81802C5.66193 3.97411 6.80653 3.5 8 3.5ZM8 5C7.20435 5 6.44129 5.31607 5.87868 5.87868C5.31607 6.44129 5 7.20435 5 8C5 8.79565 5.31607 9.55871 5.87868 10.1213C6.44129 10.6839 7.20435 11 8 11C8.79565 11 9.55871 10.6839 10.1213 10.1213C10.6839 9.55871 11 8.79565 11 8C11 7.20435 10.6839 6.44129 10.1213 5.87868C9.55871 5.31607 8.79565 5 8 5Z"
    fill="#F7F7F7" />
  <path fill-rule="evenodd" clip-rule="evenodd"
    d="M8.15031 5.004L8.11331 3.502L8.00031 3.5C8.85604 3.50032 9.69393 3.74462 10.4157 4.20426C11.1375 4.6639 11.7133 5.31981 12.0756 6.09508C12.4378 6.87036 12.5715 7.73284 12.4609 8.58139C12.3504 9.42994 12.0001 10.2294 11.4514 10.886C10.9026 11.5425 10.1779 12.029 9.36245 12.2884C8.54698 12.5477 7.67446 12.5692 6.84722 12.3502C6.01998 12.1312 5.27232 11.681 4.69192 11.0522C4.11152 10.4234 3.72244 9.64209 3.57031 8.8H5.10831C5.30283 9.49853 5.74368 10.103 6.34935 10.5017C6.95503 10.9003 7.68457 11.0662 8.40308 10.9687C9.12159 10.8711 9.78048 10.5167 10.2579 9.97098C10.7354 9.42525 10.9991 8.7251 11.0003 8C11.0002 7.23036 10.7044 6.49018 10.1739 5.93255C9.64347 5.37492 8.91899 5.04248 8.15031 5.004Z"
    fill="white" />
</svg>