<svg width="16" height="16" viewBox="0 0 16 16" fill="none" xmlns="http://www.w3.org/2000/svg">
  <path fill-rule="evenodd" clip-rule="evenodd"
    d="M9.33965 1.19999L15.1817 12.827C15.2964 13.0556 15.3508 13.3098 15.3397 13.5655C15.3285 13.8211 15.2522 14.0695 15.1179 14.2873C14.9836 14.5051 14.7958 14.6849 14.5724 14.8096C14.3491 14.9344 14.0975 14.9999 13.8417 15H2.15765C1.90181 14.9999 1.65024 14.9344 1.42686 14.8096C1.20349 14.6849 1.01573 14.5051 0.881443 14.2873C0.747154 14.0695 0.670797 13.8211 0.659632 13.5655C0.648467 13.3098 0.702866 13.0556 0.817655 12.827L6.65965 1.19999C6.78456 0.951694 6.976 0.742983 7.21262 0.597147C7.44923 0.451311 7.72171 0.374084 7.99965 0.374084C8.2776 0.374084 8.55008 0.451311 8.78669 0.597147C9.02331 0.742983 9.21475 0.951694 9.33965 1.19999Z"
    fill="#CC7900" />
  <path fill-rule="evenodd" clip-rule="evenodd"
    d="M8.5 11C8.61703 11 8.73036 11.041 8.82026 11.1159C8.91016 11.1908 8.97093 11.2949 8.992 11.41L9 11.5V12.5C9.00004 12.617 8.95903 12.7304 8.88411 12.8203C8.80919 12.9102 8.70511 12.9709 8.59 12.992L8.5 13H7.5C7.38297 13 7.26964 12.959 7.17974 12.8841C7.08984 12.8092 7.02906 12.7051 7.008 12.59L7 12.5V11.5C6.99996 11.383 7.04097 11.2696 7.11589 11.1797C7.19081 11.0898 7.29489 11.0291 7.41 11.008L7.5 11H8.5ZM9 5V9.5H7V5H9Z"
    fill="white" />
</svg>